# xmcd CD database file
# Generated: Sat Oct 18 21:02:14 2003 by KSCD
# 
# Track frame offsets:
#       150
#       26555
#       43503
#       59148
#       81668
#       97650
#       116518
#       143233
#       159135
#       181155
#
# Disc length: 2736 seconds
#
# Revision: 9
# Processed by: cddbd v1.4PL0 Copyright (c) Steve Scherf et al.
# Submitted via: Kscd 1.3.3
#
DISCID=7c0aae0a
DTITLE=Champion Jack Dupree - One Last Time
DYEAR=1900
DGENRE=
TTITLE0=Bad Blood
TTITLE1=She's Jail Bait
TTITLE2=Somebody Done Changed The Lock On My Door
TTITLE3=Give Me Flowers While I'm Livin'
TTITLE4=Hey Mary
TTITLE5=Drinkin' Wine Spo-Dee-O-Dee
TTITLE6=You Can Make It
TTITLE7=Big Leg Emma
TTITLE8=Early In The Morning
TTITLE9=School Days
EXTD=
EXTT0=
EXTT1=
EXTT2=
EXTT3=
EXTT4=
EXTT5=
EXTT6=
EXTT7=
EXTT8=
EXTT9=
PLAYORDER=
